HIERARCHY
ROOT Hips
{
	OFFSET 0.000000 0.000000 0.000000
	CHANNELS 6 Xposition Yposition Zposition Zrotation Yrotation Xrotation 
	JOINT LHipJoint
	{
		OFFSET 0.000000 0.000000 0.000000
		CHANNELS 3 Zrotation Yrotation Xrotation
		JOINT LeftUpLeg
		{
			OFFSET 1.363060 -1.794630 0.839290
			CHANNELS 3 Zrotation Yrotation Xrotation
			JOINT LeftLeg
			{
				OFFSET 2.448110 -6.726130 0.000000
				CHANNELS 3 Zrotation Yrotation Xrotation
				JOINT LeftFoot
				{
					OFFSET 2.562200 -7.039590 0.000000
					CHANNELS 3 Zrotation Yrotation Xrotation
					JOINT LeftToeBase
					{
						OFFSET 0.157640 -0.433110 2.322550
						CHANNELS 3 Zrotation Yrotation Xrotation
						End Site
						{
							OFFSET 0.000000 0.000000 0.000000
						}
					}
				}
			}
		}
	}
	JOINT RHipJoint
	{
		OFFSET 0.000000 0.000000 0.000000
		CHANNELS 3 Zrotation Yrotation Xrotation
		JOINT RightUpLeg
		{
			OFFSET -1.305520 -1.794630 0.839290
			CHANNELS 3 Zrotation Yrotation Xrotation
			JOINT RightLeg
			{
				OFFSET -2.542530 -6.985550 0.000000
				CHANNELS 3 Zrotation Yrotation Xrotation
				JOINT RightFoot
				{
					OFFSET -2.568260 -7.056230 0.000000
					CHANNELS 3 Zrotation Yrotation Xrotation
					JOINT RightToeBase
					{
						OFFSET -0.164730 -0.452590 2.363150
						CHANNELS 3 Zrotation Yrotation Xrotation
						End Site
						{
							OFFSET 0.000000 0.000000 0.000000
						}
					}
				}
			}
		}
	}
	JOINT LowerBack
	{
		OFFSET 0.000000 0.000000 0.000000
		CHANNELS 3 Zrotation Yrotation Xrotation
		JOINT Spine
		{
			OFFSET 0.028270 2.035590 -0.193380
			CHANNELS 3 Zrotation Yrotation Xrotation
			JOINT Spine1
			{
				OFFSET 0.056720 2.048850 -0.042750
				CHANNELS 3 Zrotation Yrotation Xrotation
				JOINT Neck
				{
					OFFSET 0.000000 0.000000 0.000000
					CHANNELS 3 Zrotation Yrotation Xrotation
					JOINT Neck1
					{
						OFFSET -0.054170 1.746240 0.172020
						CHANNELS 3 Zrotation Yrotation Xrotation
						JOINT Head
						{
							OFFSET 0.104070 1.761360 -0.123970
							CHANNELS 3 Zrotation Yrotation Xrotation
							End Site
							{
								OFFSET 0.000000 0.000000 0.000000
							}
						}
					}
				}
				JOINT LeftShoulder
				{
					OFFSET 0.000000 0.000000 0.000000
					CHANNELS 3 Zrotation Yrotation Xrotation
					JOINT LeftArm
					{
						OFFSET 3.362410 1.200890 -0.311210
						CHANNELS 3 Zrotation Yrotation Xrotation
						JOINT LeftForeArm
						{
							OFFSET 4.983000 -0.000000 -0.000000
							CHANNELS 3 Zrotation Yrotation Xrotation
							JOINT LeftHand
							{
								OFFSET 3.483560 -0.000000 -0.000000
								CHANNELS 3 Zrotation Yrotation Xrotation
								JOINT LeftFingerBase
								{
									OFFSET 0.000000 0.000000 0.000000
									CHANNELS 3 Zrotation Yrotation Xrotation
									JOINT LeftHandIndex1
									{
										OFFSET 0.715260 -0.000000 -0.000000
										CHANNELS 3 Zrotation Yrotation Xrotation
										End Site
										{
											OFFSET 0.000000 0.000000 0.000000
										}
									}
								}
								JOINT LThumb
								{
									OFFSET 0.000000 0.000000 0.000000
									CHANNELS 3 Zrotation Yrotation Xrotation
									End Site
									{
										OFFSET 0.000000 0.000000 0.000000
									}
								}
							}
						}
					}
				}
				JOINT RightShoulder
				{
					OFFSET 0.000000 0.000000 0.000000
					CHANNELS 3 Zrotation Yrotation Xrotation
					JOINT RightArm
					{
						OFFSET -3.136600 1.374050 -0.404650
						CHANNELS 3 Zrotation Yrotation Xrotation
						JOINT RightForeArm
						{
							OFFSET -5.241900 -0.000000 -0.000000
							CHANNELS 3 Zrotation Yrotation Xrotation
							JOINT RightHand
							{
								OFFSET -3.444170 -0.000000 -0.000000
								CHANNELS 3 Zrotation Yrotation Xrotation
								JOINT RightFingerBase
								{
									OFFSET 0.000000 0.000000 0.000000
									CHANNELS 3 Zrotation Yrotation Xrotation
									JOINT RightHandIndex1
									{
										OFFSET -0.622530 -0.000000 -0.000000
										CHANNELS 3 Zrotation Yrotation Xrotation
										End Site
										{
											OFFSET 0.000000 0.000000 0.000000
										}
									}
								}
								JOINT RThumb
								{
									OFFSET 0.000000 0.000000 0.000000
									CHANNELS 3 Zrotation Yrotation Xrotation
									End Site
									{
										OFFSET 0.000000 0.000000 0.000000
									}
								}
							}
						}
					}
				}
			}
		}
	}
}
MOTION
Frames: 11
Frame Time: 0.008333
3.464971 17.291034 1.228174 -177.887217 -72.503799 -171.153816 -11.882554 2.779955 -0.353283 -6.054958 25.820560 -14.316905 -2.906731 -0.969529 -3.507433 0.849585 6.816509 2.780001 1.277900 0.000000 -35.684900 9.318631 -1.195072 3.458956 1.602036 0.861534 -14.042527 2.702212 1.556677 -0.522695 0.410356 0.855840 4.289227 -0.476500 0.000000 -45.406400 1.366192 -4.906775 -4.421174 -0.409003 -5.188440 -3.585680 -9.002798 -4.968851 -1.670158 13.149462 -4.526808 -1.011413 -2.490526 -0.265450 1.857830 0.000000 0.000000 0.000000 23.444228 -1.739822 2.026760 11.460301 -63.822618 -75.706570 2.754301 -1.254476 -0.109896 14.665068 0.999964 0.077947 -0.371342 0.402350 -0.000000 0.000000 0.000000 0.000000 0.000000 0.000000 0.000000 5.368432 -2.436490 -5.120501 96.130543 23.377455 45.082497 -178.019105 53.815559 179.864123 -9.200669 14.292771 -1.262582 0.121048 -1.077059 -0.000000 0.000000 0.000000 0.000000 0.000000 0.000000 0.000000 
3.455052 17.295627 1.227478 -178.478290 -72.237209 -170.502008 -11.888644 2.812785 -0.339551 -6.277224 25.807120 -14.431785 -2.921157 -0.962658 -3.351565 0.866467 6.954723 2.772140 1.301800 -0.000000 -35.627100 9.316340 -1.197031 3.525864 1.379015 1.034863 -14.190834 2.680247 1.556632 -0.508379 0.411700 0.854995 4.331583 -0.478701 0.000000 -45.456500 1.409373 -4.959480 -4.520328 -0.370301 -5.247073 -3.587482 -8.895603 -5.033083 -1.584216 12.889237 -4.693226 -1.179688 -2.494720 -0.263514 1.811708 0.000000 0.000000 0.000000 23.305486 -0.564553 1.549401 8.337047 -64.759778 -72.534054 2.909816 -2.802336 -0.114412 14.891620 1.139648 0.096638 -0.365651 0.410824 -0.000000 0.000000 0.000000 0.000000 0.000000 0.000000 0.000000 5.025942 -2.598513 -5.121736 96.305934 23.201208 45.254779 -177.990186 53.790850 179.864436 -9.126846 14.306669 -1.253045 0.116603 -1.075937 -0.000000 0.000000 0.000000 0.000000 0.000000 0.000000 0.000000 
3.445964 17.298768 1.226197 -179.056598 -71.865373 -169.897031 -11.891521 2.828047 -0.374462 -6.464135 25.850805 -14.465221 -2.930542 -0.952099 -3.143571 0.893288 7.175656 2.707704 1.331900 -0.000000 -35.556400 9.318112 -1.198477 3.582268 1.130823 1.292663 -14.259418 2.654847 1.550898 -0.544842 0.416969 0.894944 4.381313 -0.469900 0.000000 -45.485000 1.462735 -4.959012 -4.540589 -0.317081 -5.249236 -3.620194 -8.715313 -5.058399 -1.657625 12.555386 -4.889703 -1.253411 -2.539436 -0.265271 1.793303 0.000000 0.000000 0.000000 22.970669 1.011722 0.551424 1.607313 -66.017976 -64.519835 3.274980 -6.605148 -0.124320 15.140120 1.638317 0.163106 -0.350459 0.431511 -0.000000 0.000000 0.000000 0.000000 0.000000 0.000000 0.000000 4.646512 -2.723903 -5.053511 96.332032 23.007209 45.335097 -177.989379 53.710999 179.863957 -9.143437 14.320721 -1.256976 0.118119 -1.079429 -0.000000 0.000000 0.000000 0.000000 0.000000 0.000000 0.000000 
3.437807 17.300067 1.224380 -179.585447 -71.439190 -169.356226 -11.887469 2.818811 -0.461478 -6.614431 25.933916 -14.436080 -2.936476 -0.942892 -2.888515 0.927029 7.460102 2.585458 1.364500 -0.000000 -35.475500 9.326652 -1.202492 3.620848 0.871917 1.608412 -14.269906 2.626595 1.537956 -0.620262 0.424597 0.972921 4.423310 -0.449900 0.000000 -45.504600 1.520922 -4.876900 -4.470013 -0.258277 -5.164443 -3.697981 -8.483781 -5.019850 -1.926256 12.201401 -5.091429 -1.236208 -2.608845 -0.269888 1.801625 0.000000 0.000000 0.000000 22.449149 2.784412 -0.836969 -8.795597 -66.879150 -51.826889 3.921918 -12.704715 -0.141030 15.510091 2.617208 0.297883 -0.321680 0.466633 -0.000000 0.000000 0.000000 0.000000 0.000000 0.000000 0.000000 4.255202 -2.908167 -4.920418 96.198874 22.742150 45.309032 -177.993189 53.540523 179.862617 -9.237631 14.337895 -1.272506 0.123293 -1.085409 -0.000000 0.000000 0.000000 0.000000 0.000000 0.000000 0.000000 
3.430119 17.299275 1.221981 179.939391 -71.048162 -168.895621 -11.876081 2.787272 -0.576592 -6.729875 26.037778 -14.361275 -2.941428 -0.943847 -2.591998 0.962781 7.778281 2.409906 1.395200 0.000000 -35.387200 9.339704 -1.227864 3.663996 0.614955 1.944830 -14.235738 2.595488 1.516612 -0.722560 0.432888 1.082043 4.442405 -0.419600 -0.000000 -45.527300 1.595363 -4.648123 -4.374354 -0.235158 -4.933622 -3.792938 -8.349133 -4.836234 -2.231533 11.910714 -5.275072 -1.159399 -2.680454 -0.275568 1.824921 0.000000 0.000000 0.000000 21.612483 4.433366 -2.057242 -19.776858 -66.848197 -38.991620 4.508601 -20.816395 -0.162969 15.854119 3.598431 0.433431 -0.269426 0.530502 -0.000000 0.000000 0.000000 0.000000 0.000000 0.000000 0.000000 3.956236 -3.242746 -4.753491 95.912799 22.390139 45.110017 -177.947819 53.246213 179.860053 -9.390779 14.354917 -1.295917 0.127550 -1.091045 -0.000000 0.000000 0.000000 0.000000 0.000000 0.000000 0.000000 
3.422564 17.296295 1.219118 179.483896 -70.739572 -168.539602 -11.863916 2.754378 -0.666211 -6.814756 26.159186 -14.245878 -2.944854 -0.956441 -2.263719 0.997617 8.102455 2.187068 1.419000 -0.000000 -35.294500 9.348630 -1.291281 3.751315 0.367531 2.264290 -14.152826 2.563687 1.489822 -0.828196 0.442905 1.221590 4.427628 -0.380300 0.000001 -45.564200 1.738469 -4.261767 -4.372912 -0.283421 -4.561707 -3.859023 -8.477706 -4.479878 -2.373838 11.677246 -5.417687 -0.973755 -2.761633 -0.283255 1.874437 0.000000 0.000000 0.000000 20.352001 5.424933 -2.676267 -28.096896 -65.696380 -29.854686 4.377214 -30.803983 -0.180785 15.701930 3.997529 0.471321 -0.193085 0.617859 -0.000000 0.000000 0.000000 0.000000 0.000000 0.000000 0.000000 3.829035 -3.607748 -4.552309 95.530875 21.989888 44.702377 -177.831632 52.892767 179.855917 -9.576185 14.361866 -1.322549 0.128060 -1.097581 -0.000000 0.000000 0.000000 0.000000 0.000000 0.000000 0.000000 
3.414743 17.291117 1.216216 179.057078 -70.492977 -168.293886 -11.855271 2.731091 -0.715037 -6.872925 26.301115 -14.106914 -2.946033 -0.974569 -1.916662 1.030296 8.406549 1.920725 1.430400 0.000000 -35.203700 9.350314 -1.381815 3.877441 0.141364 2.544092 -14.036711 2.535356 1.461967 -0.911834 0.456038 1.391733 4.374207 -0.333700 0.000000 -45.623600 1.958434 -3.793390 -4.473620 -0.382172 -4.125675 -3.892092 -8.822267 -4.027537 -2.372752 11.459145 -5.521464 -0.649712 -2.868360 -0.294240 1.959522 0.000000 0.000000 0.000000 18.777302 5.533452 -2.825427 -33.471464 -63.423271 -24.266223 3.490630 -42.276851 -0.183226 14.635059 3.500602 0.361991 -0.104714 0.704854 -0.000000 0.000000 0.000000 0.000000 0.000000 0.000000 0.000000 3.841415 -3.869692 -4.301354 95.108373 21.577830 44.156991 -177.690735 52.552342 179.850916 -9.760219 14.349182 -1.347094 0.126661 -1.107100 -0.000000 0.000000 0.000000 0.000000 0.000000 0.000000 0.000000 
3.406501 17.283887 1.214054 178.703518 -70.287641 -168.149908 -11.849688 2.711825 -0.745111 -6.904052 26.464314 -13.968282 -2.946816 -0.993656 -1.566876 1.058651 8.662149 1.616714 1.424600 0.000000 -35.122200 9.347650 -1.477618 4.007075 -0.048327 2.769665 -13.916240 2.513635 1.434829 -0.955058 0.472438 1.590546 4.281090 -0.281300 0.000000 -45.709700 2.214303 -3.318580 -4.601926 -0.488732 -3.689219 -3.903524 -9.224880 -3.558598 -2.305740 11.249935 -5.610732 -0.270964 -2.997744 -0.307216 2.058068 0.000000 0.000000 0.000000 17.074560 5.080862 -2.750692 -37.145096 -60.503396 -20.544310 2.287564 -54.347516 -0.167742 12.622379 2.207615 0.159947 -0.023234 0.775955 -0.000000 0.000000 0.000000 0.000000 0.000000 0.000000 0.000000 3.922552 -4.042813 -4.024245 94.676938 21.188753 43.577405 -177.576590 52.237484 179.846295 -9.908748 14.315503 -1.365186 0.125751 -1.118910 -0.000000 0.000000 0.000000 0.000000 0.000000 0.000000 0.000000 
3.397777 17.274917 1.213401 178.456053 -70.118672 -168.105087 -11.847692 2.691712 -0.773177 -6.906009 26.654155 -13.846284 -2.949737 -1.011190 -1.229519 1.079854 8.842090 1.284742 1.398600 0.000000 -35.057200 9.341570 -1.564393 4.117493 -0.189210 2.932103 -13.810908 2.500423 1.409312 -0.948188 0.491561 1.811326 4.151874 -0.225400 -0.000000 -45.820000 2.485724 -2.880888 -4.707804 -0.573751 -3.288115 -3.890985 -9.578808 -3.117331 -2.172155 11.039407 -5.714508 0.050198 -3.142162 -0.320232 2.139063 0.000000 0.000000 0.000000 15.412898 4.554346 -2.577000 -40.251517 -57.488366 -17.407309 1.160287 -66.205439 -0.139354 9.984317 0.522759 -0.024556 0.037692 0.830046 -0.000000 0.000000 0.000000 0.000000 0.000000 0.000000 0.000000 4.015757 -4.182672 -3.762760 94.278091 20.872640 43.054755 -177.518041 51.963455 179.842970 -9.997969 14.264282 -1.373850 0.126452 -1.131676 -0.000000 0.000000 0.000000 0.000000 0.000000 0.000000 0.000000 
3.388393 17.264722 1.214846 178.324650 -69.984771 -168.154933 -11.851337 2.670718 -0.803507 -6.879110 26.876680 -13.746698 -2.956798 -1.025926 -0.921527 1.091460 8.927438 0.939422 1.353000 0.000000 -35.013700 9.330965 -1.635954 4.201212 -0.275846 3.025877 -13.729538 2.496640 1.386027 -0.886521 0.513044 2.047750 3.994251 -0.168300 0.000001 -45.947500 2.775873 -2.502559 -4.776472 -0.623468 -2.943035 -3.850473 -9.839489 -2.726855 -1.952626 10.800238 -5.843568 0.248518 -3.297772 -0.332269 2.184663 0.000000 0.000000 0.000000 13.985658 4.272391 -2.370033 -43.568101 -54.587186 -14.208669 0.343426 -77.445659 -0.104122 7.124848 -1.123891 -0.120269 0.075522 0.873055 -0.000000 0.000000 0.000000 0.000000 0.000000 0.000000 0.000000 4.072304 -4.311430 -3.543120 93.960005 20.654428 42.639965 -177.522573 51.759340 179.841294 -10.010706 14.202471 -1.371198 0.128383 -1.144831 -0.000000 0.000000 0.000000 0.000000 0.000000 0.000000 0.000000 
3.377962 17.253981 1.218514 178.305893 -69.883988 -168.287212 -11.862174 2.650170 -0.835537 -6.827371 27.134560 -13.673178 -2.969579 -1.037534 -0.659996 1.091824 8.908813 0.598781 1.290900 -0.000001 -34.993800 9.314665 -1.690013 4.258496 -0.308507 3.053809 -13.677938 2.502294 1.365928 -0.775002 0.536109 2.290251 3.819089 -0.112599 0.000000 -46.081100 3.091250 -2.194367 -4.808676 -0.632092 -2.665467 -3.785300 -9.986115 -2.400861 -1.651147 10.500400 -6.003251 0.303399 -3.465606 -0.343278 2.189858 0.000000 0.000000 0.000000 12.960138 4.356238 -2.197409 -47.576993 -51.693061 -10.715854 -0.033193 -87.931512 -0.066330 4.348531 -2.472854 -0.122393 0.094785 0.911449 -0.000000 0.000000 0.000000 0.000000 0.000000 0.000000 0.000000 4.054690 -4.438176 -3.370818 93.756465 20.534151 42.356391 -177.589639 51.656952 179.841273 -9.944769 14.136855 -1.357631 0.131119 -1.158379 -0.000000 0.000000 0.000000 0.000000 0.000000 0.000000 0.000000 
